<svg id="Capa_1" data-name="Capa 1" xmlns="http://www.w3.org/2000/svg" viewBox="0 0 1401.72 249.82"><defs><style>.cls-1{fill:red;}.cls-2{fill:#5a72ff;}.cls-3{fill:#ff0;}.cls-4{fill:#00b70d;}.cls-5{fill:#fff;}</style></defs><title>graphic</title><rect class="cls-1" x="243.1" y="148.32" width="159" height="101"/><path d="M314,39V139H156V39H314m1-1H155V140H315V38Z" transform="translate(87.6 109.82)"/><rect class="cls-2" x="492.1" y="59.32" width="159" height="101"/><path d="M563-50V50H405V-50H563m1-1H404V51H564V-51Z" transform="translate(87.6 109.82)"/><rect class="cls-2" x="1141.5" y="-12.5" width="159" height="101" transform="translate(158.64 559.98) rotate(-21.5)"/><path d="M1276.18-37.48l36.65,93.05-147,57.91-36.65-93.05,147-57.91m.56-1.29L1127.87,19.87l37.39,94.9,148.87-58.64-37.39-94.9Z" transform="translate(87.6 109.82)"/><rect class="cls-3" x="-43.5" y="-100.5" width="101" height="159" transform="translate(107.19 107.02) rotate(-53.1)"/><path d="M-26.16-108.42,100.2-13.55l-60,80L-86.2-28.45l60-80m-.19-1.4L-87.6-28.25l128,96.07L101.6-13.75-26.35-109.82Z" transform="translate(87.6 109.82)"/><rect class="cls-4" x="585.1" y="139.32" width="159" height="101"/><path d="M656,30V130H498V30H656m1-1H497V131H657V29Z" transform="translate(87.6 109.82)"/><rect class="cls-1" x="921.1" y="66.32" width="159" height="101"/><path d="M992-43V57H834V-43H992m1-1H833V58H993V-44Z" transform="translate(87.6 109.82)"/><rect x="1008.6" y="151.82" width="89" height="77"/><rect class="cls-5" x="457.1" y="123.32" width="86" height="74"/><path d="M454,15V86H371V15h83m3-3H368V89h89V12Z" transform="translate(87.6 109.82)"/></svg>